<svg height="512pt" viewBox="-1 0 512 512" width="512pt" xmlns="http://www.w3.org/2000/svg"><path d="m424.28125 134.34375c-4.167969 0-7.542969 3.375-7.542969 7.539062 0 34.222657-27.839843 62.0625-62.0625 62.0625-34.222656 0-62.0625-27.839843-62.0625-62.0625 0-.390624-.039062-.769531-.09375-1.144531-.746093-41.898437-35.039062-75.761719-77.109375-75.761719-42.539062 0-77.148437 34.609376-77.148437 77.144532v91.738281c0 4.167969 3.378906 7.542969 7.542969 7.542969 4.164062 0 7.539062-3.375 7.539062-7.542969v-91.738281c0-34.21875 27.84375-62.0625 62.066406-62.0625 34.21875 0 62.0625 27.839844 62.0625 62.0625 0 .390625.039063.773437.09375 1.148437.746094 41.898438 35.035156 75.757813 77.109375 75.757813 42.539063 0 77.144531-34.605469 77.144531-77.144532 0-4.164062-3.375-7.539062-7.539062-7.539062zm0 0" fill="#d0cfd1"/><path d="m187.675781 232.625h-86.96875c-55.53125 0-100.707031 45.175781-100.707031 100.703125v77.964844c0 55.53125 45.175781 100.707031 100.707031 100.707031h86.96875c55.527344 0 100.703125-45.175781 100.703125-100.707031v-77.964844c0-55.527344-45.175781-100.703125-100.703125-100.703125zm0 0" fill="#d0cfd1"/><path d="m187.675781 232.625h-20.109375c55.527344 0 100.703125 45.175781 100.703125 100.703125v77.964844c0 55.53125-45.175781 100.707031-100.703125 100.707031h20.109375c55.527344 0 100.703125-45.175781 100.703125-100.707031v-77.964844c0-55.527344-45.175781-100.703125-100.703125-100.703125zm0 0" fill="#c1c1c1"/><path d="m187.675781 262.359375h-86.96875c-39.132812 0-70.972656 31.835937-70.972656 70.96875v77.964844c0 39.132812 31.839844 70.972656 70.972656 70.972656h86.96875c39.132813 0 70.96875-31.839844 70.96875-70.972656v-77.964844c0-39.132813-31.835937-70.96875-70.96875-70.96875zm0 0" fill="#a2a2a2"/><path d="m187.675781 262.359375h-23.125c39.132813 0 70.96875 31.835937 70.96875 70.96875v77.964844c0 39.132812-31.835937 70.972656-70.96875 70.972656h23.125c39.132813 0 70.96875-31.839844 70.96875-70.972656v-77.964844c0-39.132813-31.835937-70.96875-70.96875-70.96875zm0 0" fill="#7a7a7a"/><path d="m144.191406 425.417969c-29.285156 0-53.105468-23.824219-53.105468-53.105469s23.820312-53.105469 53.105468-53.105469c29.28125 0 53.101563 23.824219 53.101563 53.105469s-23.820313 53.105469-53.101563 53.105469zm0-91.128907c-20.96875 0-38.023437 17.058594-38.023437 38.023438s17.054687 38.023438 38.023437 38.023438c20.964844 0 38.019532-17.058594 38.019532-38.023438s-17.054688-38.023438-38.019532-38.023438zm0 0" fill="#d9d9da"/><path d="m144.191406 368.832031c-4.167968 0-7.542968-3.375-7.542968-7.539062v-61.609375c0-4.164063 3.375-7.539063 7.542968-7.539063 4.164063 0 7.539063 3.375 7.539063 7.539063v61.609375c0 4.164062-3.375 7.539062-7.539063 7.539062zm0 0" fill="#d9d9da"/><path d="m489.707031 0h-129.390625c-11.367187 0-20.613281 9.246094-20.613281 20.613281v308.355469c0 11.363281 9.246094 20.609375 20.613281 20.609375h129.390625c11.363281 0 20.609375-9.246094 20.609375-20.609375v-308.355469c0-11.367187-9.246094-20.613281-20.609375-20.613281zm0 0" fill="#a2a2a2"/><path d="m489.707031 0h-24.132812c11.367187 0 20.613281 9.246094 20.613281 20.613281v308.355469c0 11.363281-9.246094 20.609375-20.613281 20.609375h24.132812c11.363281 0 20.609375-9.246094 20.609375-20.609375v-308.355469c0-11.367187-9.246094-20.613281-20.609375-20.613281zm0 0" fill="#7a7a7a"/><path d="m339.703125 155.726562v173.242188c0 11.363281 9.246094 20.609375 20.613281 20.609375h129.390625c11.363281 0 20.609375-9.246094 20.609375-20.609375v-173.242188zm0 0" fill="#7a7a7a"/><path d="m486.1875 328.96875c0 11.363281-9.246094 20.609375-20.613281 20.609375h24.132812c11.363281 0 20.609375-9.246094 20.609375-20.609375v-173.242188h-24.128906zm0 0" fill="#4b4b4b"/><path d="m437.558594 94.90625h-25.09375c-11.367188 0-20.613282 9.246094-20.613282 20.613281v70.976563c0 11.363281 9.246094 20.609375 20.613282 20.609375h25.09375c11.363281 0 20.609375-9.246094 20.609375-20.609375v-70.976563c0-11.367187-9.246094-20.613281-20.609375-20.613281zm0 0" fill="#6b6c6d"/><path d="m396.386719 27.742188c-13.894531 0-25.203125 11.308593-25.203125 25.207031 0 13.898437 11.308594 25.203125 25.203125 25.203125 13.898437 0 25.207031-11.304688 25.207031-25.203125 0-13.898438-11.308594-25.207031-25.207031-25.207031zm0 0" fill="#d0cfd1"/><path d="m453.632812 27.742188c-13.898437 0-25.207031 11.308593-25.207031 25.207031 0 13.898437 11.308594 25.203125 25.207031 25.203125 13.898438 0 25.207032-11.304688 25.207032-25.203125 0-13.898438-11.308594-25.207031-25.207032-25.207031zm0 0" fill="#d0cfd1"/><g fill="#646464"><path d="m396.386719 223.859375c-13.894531 0-25.203125 11.308594-25.203125 25.207031 0 13.898438 11.308594 25.207032 25.203125 25.207032 13.898437 0 25.207031-11.308594 25.207031-25.207032 0-13.898437-11.308594-25.207031-25.207031-25.207031zm0 0"/><path d="m453.632812 274.273438c13.898438 0 25.207032-11.308594 25.207032-25.207032 0-13.898437-11.308594-25.207031-25.207032-25.207031-13.898437 0-25.207031 11.308594-25.207031 25.207031 0 13.898438 11.308594 25.207032 25.207031 25.207032zm0 0"/><path d="m396.386719 276.839844c-13.894531 0-25.203125 11.308594-25.203125 25.207031s11.308594 25.203125 25.203125 25.203125c13.898437 0 25.207031-11.304688 25.207031-25.203125s-11.308594-25.207031-25.207031-25.207031zm0 0"/><path d="m453.632812 276.839844c-13.898437 0-25.207031 11.308594-25.207031 25.207031s11.308594 25.203125 25.207031 25.203125c13.898438 0 25.207032-11.304688 25.207032-25.203125s-11.308594-25.207031-25.207032-25.207031zm0 0"/></g><path d="m145.804688 140.863281c-15.21875 0-27.601563 12.382813-27.601563 27.601563s12.382813 27.601562 27.601563 27.601562 27.601562-12.382812 27.601562-27.601562-12.382812-27.601563-27.601562-27.601563zm0 0" fill="#f45a3c"/><path d="m215.410156 44.917969c-15.21875 0-27.601562 12.382812-27.601562 27.601562s12.382812 27.601563 27.601562 27.601563 27.601563-12.382813 27.601563-27.601563-12.382813-27.601562-27.601563-27.601562zm0 0" fill="#f45a3c"/><path d="m290.414062 140.863281c-15.21875 0-27.601562 12.382813-27.601562 27.601563s12.382812 27.601562 27.601562 27.601562 27.601563-12.382812 27.601563-27.601562-12.382813-27.601563-27.601563-27.601563zm0 0" fill="#f45a3c"/><path d="m145.804688 140.863281c-4.300782 0-8.375.988281-12.011719 2.753907 9.140625 4.511718 15.441406 13.933593 15.425781 24.792968-.011719 10.90625-6.382812 20.347656-15.589844 24.816406 3.675782 1.8125 7.808594 2.839844 12.175782 2.839844 15.21875 0 27.601562-12.382812 27.601562-27.601562s-12.382812-27.601563-27.601562-27.601563zm0 0" fill="#e24a2a"/><path d="m215.410156 44.917969c-4.3125 0-8.394531.996093-12.035156 2.765625 9.214844 4.484375 15.574219 13.949218 15.5625 24.863281-.011719 10.898437-6.371094 20.328125-15.570312 24.804687 3.640624 1.769532 7.726562 2.769532 12.042968 2.769532 15.21875 0 27.601563-12.382813 27.601563-27.601563s-12.382813-27.601562-27.601563-27.601562zm0 0" fill="#e24a2a"/><path d="m290.414062 140.863281c-4.367187 0-8.5 1.023438-12.171874 2.835938 9.226562 4.480469 15.601562 13.953125 15.585937 24.882812-.011719 10.839844-6.304687 20.226563-15.425781 24.730469 3.632812 1.761719 7.710937 2.753906 12.011718 2.753906 15.21875 0 27.601563-12.382812 27.601563-27.601562s-12.382813-27.601563-27.601563-27.601563zm0 0" fill="#e24a2a"/></svg>